<svg viewBox="0 0 20 20" xmlns="http://www.w3.org/2000/svg" xmlns:xlink="http://www.w3.org/1999/xlink" width="20.000000" height="20.000000" fill="none" customFrame="#000000">
	<g id="Group 172">
		<path id="Vector" d="M17.5 0L2.5 0C1.12083 0 0 1.12083 0 2.5L0 17.5C0 18.8783 1.12083 20 2.5 20L17.5 20C18.8783 20 20 18.8783 20 17.5L20 2.5C20 1.12083 18.8783 0 17.5 0Z" fill="rgb(59,89,153)" fill-rule="nonzero" />
		<path id="Vector" d="M13.75 10L13.75 7.5C13.75 6.81 14.31 6.875 15 6.875L16.25 6.875L16.25 3.75L13.75 3.75C11.6783 3.75 10 5.42833 10 7.5L10 10L7.5 10L7.5 13.125L10 13.125L10 20L13.75 20L13.75 13.125L15.625 13.125L16.875 10L13.75 10Z" fill="rgb(255,255,255)" fill-rule="nonzero" />
	</g>
</svg>
