<svg viewBox="0 0 20 20" xmlns="http://www.w3.org/2000/svg" xmlns:xlink="http://www.w3.org/1999/xlink" width="20.000000" height="20.000000" fill="none" customFrame="#000000">
	<defs>
		<radialGradient id="paint_radial_0" cx="0" cy="0" r="1" gradientUnits="userSpaceOnUse" gradientTransform="matrix(0,-22.0556,22.0565,0,4.09989,17.4777)">
			<stop stop-color="rgb(250,225,0)" offset="0" stop-opacity="1" />
			<stop stop-color="rgb(250,220,4)" offset="0.0544000007" stop-opacity="1" />
			<stop stop-color="rgb(251,206,14)" offset="0.116700001" stop-opacity="1" />
			<stop stop-color="rgb(252,183,32)" offset="0.182899997" stop-opacity="1" />
			<stop stop-color="rgb(254,152,56)" offset="0.251399994" stop-opacity="1" />
			<stop stop-color="rgb(255,121,80)" offset="0.305400014" stop-opacity="1" />
			<stop stop-color="rgb(255,28,116)" offset="0.492199987" stop-opacity="1" />
			<stop stop-color="rgb(108,28,209)" offset="1" stop-opacity="1" />
		</radialGradient>
		<linearGradient id="paint_linear_0" x1="7.67094517" x2="-26.2107773" y1="8.68942451" y2="-10.3698044" gradientUnits="userSpaceOnUse">
			<stop stop-color="rgb(161,181,216)" offset="0" stop-opacity="0" />
			<stop stop-color="rgb(144,162,189)" offset="0.309399992" stop-opacity="0.309803993" />
			<stop stop-color="rgb(124,139,156)" offset="0.755400002" stop-opacity="0.756862998" />
			<stop stop-color="rgb(116,130,144)" offset="1" stop-opacity="1" />
		</linearGradient>
		<linearGradient id="paint_linear_1" x1="9.99964523" x2="9.99964523" y1="17.6534557" y2="20.7708282" gradientUnits="userSpaceOnUse">
			<stop stop-color="rgb(250,225,0)" offset="0" stop-opacity="0" />
			<stop stop-color="rgb(252,168,0)" offset="0.306800008" stop-opacity="0.305882007" />
			<stop stop-color="rgb(254,115,0)" offset="0.627499998" stop-opacity="0.627451003" />
			<stop stop-color="rgb(255,82,0)" offset="0.868499994" stop-opacity="0.866666973" />
			<stop stop-color="rgb(255,69,0)" offset="1" stop-opacity="1" />
		</linearGradient>
		<linearGradient id="paint_linear_2" x1="8.86211205" x2="3.91263342" y1="8.83425617" y2="3.88457441" gradientUnits="userSpaceOnUse">
			<stop stop-color="rgb(131,58,180)" offset="0" stop-opacity="0" />
			<stop stop-color="rgb(131,58,180)" offset="1" stop-opacity="1" />
		</linearGradient>
		<linearGradient id="paint_linear_3" x1="13.7068605" x2="11.2365818" y1="18.2906036" y2="6.64454937" gradientUnits="userSpaceOnUse">
			<stop stop-color="rgb(131,58,180)" offset="0" stop-opacity="0" />
			<stop stop-color="rgb(131,58,180)" offset="1" stop-opacity="1" />
		</linearGradient>
		<linearGradient id="paint_linear_4" x1="14.647377" x2="4.72496223" y1="14.6470604" y2="4.72424459" gradientUnits="userSpaceOnUse">
			<stop stop-color="rgb(131,58,180)" offset="0" stop-opacity="0" />
			<stop stop-color="rgb(131,58,180)" offset="1" stop-opacity="1" />
		</linearGradient>
		<linearGradient id="paint_linear_5" x1="15.3831644" x2="12.1020117" y1="8.64255333" y2="5.36127281" gradientUnits="userSpaceOnUse">
			<stop stop-color="rgb(131,58,180)" offset="0" stop-opacity="0" />
			<stop stop-color="rgb(131,58,180)" offset="1" stop-opacity="1" />
		</linearGradient>
		<linearGradient id="paint_linear_6" x1="13.9709339" x2="5.8808012" y1="6.05708504" y2="14.1475391" gradientUnits="userSpaceOnUse">
			<stop stop-color="rgb(131,58,180)" offset="0" stop-opacity="1" />
			<stop stop-color="rgb(156,52,149)" offset="0.0922000036" stop-opacity="1" />
			<stop stop-color="rgb(220,37,70)" offset="0.292699993" stop-opacity="1" />
			<stop stop-color="rgb(253,29,29)" offset="0.39199999" stop-opacity="1" />
			<stop stop-color="rgb(252,104,49)" offset="0.558899999" stop-opacity="1" />
			<stop stop-color="rgb(252,155,64)" offset="0.68870002" stop-opacity="1" />
			<stop stop-color="rgb(252,175,69)" offset="0.752099991" stop-opacity="1" />
			<stop stop-color="rgb(253,183,80)" offset="0.780600011" stop-opacity="1" />
			<stop stop-color="rgb(254,203,106)" offset="0.86559999" stop-opacity="1" />
			<stop stop-color="rgb(255,216,122)" offset="0.941500008" stop-opacity="1" />
			<stop stop-color="rgb(255,220,128)" offset="1" stop-opacity="1" />
		</linearGradient>
	</defs>
	<g id="Group 88">
		<path id="Vector" d="M19.6576 3.57713C19.4756 1.87157 18.1285 0.524271 16.4227 0.342394C12.1451 -0.114131 7.85492 -0.114131 3.57742 0.342394C1.87164 0.524424 0.524445 1.87157 0.342407 3.57713C-0.114136 7.85445 -0.114136 12.1446 0.342407 16.4219C0.524445 18.1276 1.87164 19.4748 3.57727 19.6568C7.85477 20.1133 12.1451 20.1133 16.4227 19.6568C18.1285 19.4748 19.4756 18.1276 19.6576 16.4219C20.1141 12.1446 20.1141 7.85461 19.6576 3.57713Z" fill="url(#paint_radial_0)" fill-rule="nonzero" />
		<path id="Vector" d="M18.5699 4.30046C18.4085 2.787 17.2131 1.59152 15.6994 1.42993C11.9037 1.02498 8.0966 1.02498 4.30083 1.42993C2.78731 1.59152 1.59178 2.787 1.43019 4.30046C1.02522 8.09608 1.02522 11.903 1.43019 15.6985C1.59178 17.2121 2.78731 18.4076 4.30083 18.569C8.0966 18.9741 11.9037 18.9741 15.6993 18.569C17.213 18.4076 18.4085 17.2121 18.5699 15.6985C18.9751 11.903 18.9751 8.09608 18.5699 4.30046Z" fill="url(#paint_linear_0)" fill-rule="nonzero" />
		<path id="Vector" d="M0.299316 16.0066C0.313049 16.1448 0.32724 16.2831 0.342041 16.4213C0.524078 18.1269 1.87128 19.474 3.57706 19.656C7.85455 20.1126 12.1449 20.1126 16.4224 19.656C18.1281 19.474 19.4752 18.1269 19.6572 16.4213C19.672 16.2831 19.6862 16.1448 19.7001 16.0066L0.299316 16.0066Z" fill="url(#paint_linear_1)" fill-rule="nonzero" />
		<path id="Vector" d="M19.6575 16.4226C19.9029 14.1243 20.0161 11.8223 19.9978 9.52059L15.4262 4.94924C14.8551 4.29725 14.0209 3.89032 13.0407 3.85507C11.0248 3.78244 9.00259 3.78611 6.98645 3.85538C5.31195 3.91305 4.14099 5.0385 3.8407 6.69264C3.78775 6.98468 3.75601 7.28053 3.71436 7.57471L3.71436 12.4241C3.7374 12.5812 3.77127 12.7376 3.7818 12.8957C3.84894 13.9018 4.26245 14.7636 4.92453 15.3466L9.57663 19.9984C11.8597 20.0144 14.1428 19.9009 16.4226 19.6575C18.1284 19.4755 19.4755 18.1283 19.6575 16.4226Z" fill="url(#paint_linear_2)" fill-rule="nonzero" />
		<path id="Vector" d="M19.6574 16.4209C19.4756 18.1263 18.1281 19.4738 16.4226 19.6557C14.1431 19.8989 11.8594 20.0126 9.57672 19.9965L4.93164 15.3516C5.47012 15.823 6.17203 16.11 6.98654 16.1406C9.00223 16.2163 11.0249 16.2143 13.0406 16.1417C14.8637 16.0758 16.183 14.7265 16.2399 12.9035C16.3007 10.9678 16.3007 9.02712 16.2399 7.09147C16.214 6.25044 15.9187 5.51041 15.4292 4.95044L19.9979 9.51889C20.0159 11.8203 19.9026 14.1226 19.6574 16.4209Z" fill="url(#paint_linear_3)" fill-rule="nonzero" />
		<path id="Vector" d="M12.3602 7.83458C11.7746 7.19694 10.9343 6.79688 10.0003 6.79688C8.2312 6.79688 6.79688 8.23114 6.79688 10.0002C6.79688 10.9341 7.19696 11.7744 7.83463 12.36L15.2463 19.7714C15.6386 19.7372 16.0309 19.6992 16.4229 19.6574C18.1287 19.4754 19.4759 18.1282 19.6579 16.4225C19.6997 16.0305 19.7377 15.6382 19.7719 15.2459L12.3602 7.83458Z" fill="url(#paint_linear_4)" fill-rule="nonzero" />
		<path id="Vector" d="M19.9613 12.1537L13.9964 6.18914C13.8572 6.0065 13.6379 5.88794 13.3906 5.88794C12.9698 5.88794 12.6284 6.22911 12.6284 6.65009C12.6284 6.89742 12.747 7.11668 12.9296 7.25584L19.8547 14.1808C19.9017 13.5053 19.9372 12.8295 19.9613 12.1537Z" fill="url(#paint_linear_5)" fill-rule="nonzero" />
		<path id="Vector" d="M3.71436 7.57471C3.75601 7.28053 3.78775 6.98468 3.8407 6.69264C4.14084 5.0385 5.31195 3.91305 6.98645 3.85538C9.00259 3.78611 11.0248 3.78244 13.0407 3.85507C14.8632 3.92068 16.1831 5.27012 16.24 7.09316C16.3006 9.02897 16.3006 10.9695 16.24 12.9053C16.1831 14.7284 14.8636 16.0776 13.0408 16.1434C11.025 16.2162 9.00229 16.218 6.9866 16.1423C5.16379 16.0738 3.90372 14.7213 3.7818 12.8955C3.77127 12.7376 3.7374 12.5811 3.71436 12.4239C3.71436 10.8075 3.71436 9.19101 3.71436 7.57471ZM10.0016 15.063C10.9241 15.063 11.8476 15.0906 12.7689 15.0566C14.2135 15.003 15.102 14.1409 15.1357 12.6978C15.1775 10.8996 15.1775 9.099 15.1357 7.30068C15.102 5.85786 14.2129 4.97563 12.7689 4.94496C10.9362 4.90621 9.10147 4.90651 7.26874 4.94496C5.83578 4.97502 4.94467 5.8394 4.90576 7.26635C4.85632 9.08726 4.85632 10.9114 4.90576 12.7323C4.94467 14.1591 5.83578 15.0035 7.26889 15.0566C8.17862 15.0904 9.09064 15.063 10.0016 15.063Z" fill="url(#paint_linear_6)" fill-rule="nonzero" />
		<g id="Group">
			<path id="Vector" d="M3.71436 7.57471C3.75601 7.28053 3.78775 6.98468 3.8407 6.69264C4.14084 5.0385 5.31195 3.91305 6.98645 3.85538C9.00259 3.78611 11.0248 3.78244 13.0407 3.85507C14.8632 3.92068 16.1831 5.27012 16.24 7.09316C16.3006 9.02897 16.3006 10.9695 16.24 12.9053C16.1831 14.7284 14.8636 16.0776 13.0408 16.1434C11.025 16.2162 9.00229 16.218 6.9866 16.1423C5.16379 16.0738 3.90372 14.7213 3.7818 12.8955C3.77127 12.7376 3.7374 12.5811 3.71436 12.4239C3.71436 10.8075 3.71436 9.19101 3.71436 7.57471ZM10.0016 15.063C10.9241 15.063 11.8476 15.0906 12.7689 15.0566C14.2135 15.003 15.102 14.1409 15.1357 12.6978C15.1775 10.8996 15.1775 9.099 15.1357 7.30068C15.102 5.85786 14.2129 4.97563 12.7689 4.94496C10.9362 4.90621 9.10147 4.90651 7.26874 4.94496C5.83578 4.97502 4.94467 5.8394 4.90576 7.26635C4.85632 9.08726 4.85632 10.9114 4.90576 12.7323C4.94467 14.1591 5.83578 15.0035 7.26889 15.0566C8.17862 15.0904 9.09064 15.063 10.0016 15.063Z" fill="rgb(255,255,255)" fill-rule="nonzero" />
			<path id="Vector" d="M10.0003 6.79614C8.2312 6.79614 6.79688 8.23026 6.79688 9.99929C6.79688 11.7685 8.2312 13.2026 10.0003 13.2026C11.7696 13.2026 13.2037 11.7685 13.2037 9.99929C13.2037 8.23026 11.7696 6.79614 10.0003 6.79614ZM10.0003 12.0997C8.84018 12.0997 7.89978 11.1594 7.89978 9.99929C7.89978 8.83921 8.84018 7.89885 10.0003 7.89885C11.1604 7.89885 12.1008 8.83921 12.1008 9.99929C12.1008 11.1594 11.1604 12.0997 10.0003 12.0997Z" fill="rgb(255,255,255)" fill-rule="nonzero" />
			<path id="Vector" d="M14.1526 6.6496C14.1526 7.07042 13.8114 7.41159 13.3906 7.41159C12.9698 7.41159 12.6284 7.07042 12.6284 6.6496C12.6284 6.22862 12.9698 5.88745 13.3906 5.88745C13.8114 5.88745 14.1526 6.22862 14.1526 6.6496Z" fill="rgb(255,255,255)" fill-rule="nonzero" />
		</g>
	</g>
</svg>
