<svg viewBox="0 0 124 36" xmlns="http://www.w3.org/2000/svg" xmlns:xlink="http://www.w3.org/1999/xlink" width="124.000000" height="36.000000" fill="none" customFrame="#000000">
	<path id="Trevland" d="M15.457 14.1797C15.457 14.2031 15.4609 14.2344 15.4688 14.2734C15.4766 14.3047 15.4805 14.3398 15.4805 14.3789C15.4805 14.543 15.4141 14.6875 15.2812 14.8125C15.1562 14.9375 15.0156 15 14.8594 15C14.7344 15 14.6172 14.9609 14.5078 14.8828C14.4062 14.8047 14.332 14.6992 14.2852 14.5664C14.1836 14.2695 14.0859 13.9531 13.9922 13.6172C13.8984 13.2734 13.8125 12.9375 13.7344 12.6094C13.6641 12.2812 13.5977 11.9727 13.5352 11.6836C13.4727 11.3945 13.4258 11.1484 13.3945 10.9453C12.9492 10.9688 12.4414 10.9883 11.8711 11.0039C11.3008 11.0117 10.6875 11.0156 10.0312 11.0156L9.64453 25.4883C10.2852 25.5117 10.9023 25.5586 11.4961 25.6289C11.668 25.6445 11.8008 25.7109 11.8945 25.8281C11.9961 25.9375 12.0469 26.0703 12.0469 26.2266C12.0469 26.4219 11.9805 26.5742 11.8477 26.6836C11.7227 26.8008 11.5898 26.8594 11.4492 26.8594L11.3789 26.8594C10.7461 26.7812 10.1211 26.7266 9.50391 26.6953C8.88672 26.6719 8.26953 26.6602 7.65234 26.6602C7.02734 26.6602 6.41406 26.6719 5.8125 26.6953C5.21094 26.7266 4.60938 26.7812 4.00781 26.8594L3.9375 26.8594C3.76562 26.8594 3.61719 26.793 3.49219 26.6602C3.375 26.5273 3.31641 26.3828 3.31641 26.2266C3.31641 26.0703 3.36719 25.9375 3.46875 25.8281C3.57812 25.7109 3.71094 25.6445 3.86719 25.6289C4.46875 25.5586 5.05859 25.5117 5.63672 25.4883L5.90625 10.9453C5.24219 10.9219 4.61719 10.8945 4.03125 10.8633C3.45312 10.8242 2.93359 10.7852 2.47266 10.7461C2.42578 10.957 2.36719 11.2148 2.29688 11.5195C2.23438 11.8242 2.16016 12.1484 2.07422 12.4922C1.99609 12.8359 1.91406 13.1875 1.82812 13.5469C1.74219 13.8984 1.65234 14.2305 1.55859 14.543C1.51953 14.6758 1.44531 14.7852 1.33594 14.8711C1.23438 14.957 1.11719 15 0.984375 15C0.804688 15 0.65625 14.9375 0.539062 14.8125C0.421875 14.6797 0.363281 14.5352 0.363281 14.3789C0.363281 14.3555 0.363281 14.3281 0.363281 14.2969C0.363281 14.2578 0.371094 14.2266 0.386719 14.2031C0.503906 13.7891 0.621094 13.3359 0.738281 12.8438C0.855469 12.3516 0.960938 11.8906 1.05469 11.4609C1.15625 11.0312 1.23828 10.6719 1.30078 10.3828C1.36328 10.0938 1.39453 9.94531 1.39453 9.9375C1.43359 9.78906 1.50391 9.67188 1.60547 9.58594C1.71484 9.5 1.84375 9.45703 1.99219 9.45703L2.08594 9.45703C2.49219 9.51172 2.98438 9.55859 3.5625 9.59766C4.14844 9.63672 4.77734 9.67188 5.44922 9.70312C6.12891 9.72656 6.83203 9.74609 7.55859 9.76172C8.28516 9.77734 8.99609 9.78516 9.69141 9.78516C10.543 9.78516 11.3281 9.77734 12.0469 9.76172C12.7656 9.73828 13.3672 9.70703 13.8516 9.66797L13.8984 9.66797C14.0391 9.66797 14.168 9.71875 14.2852 9.82031C14.4023 9.91406 14.4727 10.0312 14.4961 10.1719C14.4961 10.1797 14.5078 10.2461 14.5312 10.3711C14.5547 10.4961 14.5859 10.6641 14.625 10.875C14.6641 11.0859 14.7109 11.3281 14.7656 11.6016C14.8281 11.875 14.8945 12.1602 14.9648 12.457C15.0352 12.7461 15.1094 13.043 15.1875 13.3477C15.2734 13.6445 15.3633 13.9219 15.457 14.1797ZM28.8267 20.7539C28.5377 20.7539 28.2642 20.6992 28.0064 20.5898C27.7564 20.4805 27.5377 20.332 27.3502 20.1445C27.1627 19.957 27.0142 19.7383 26.9048 19.4883C26.7955 19.2305 26.7408 18.957 26.7408 18.668C26.7408 18.3789 26.7955 18.1094 26.9048 17.8594C27.0142 17.6016 27.1627 17.3789 27.3502 17.1914C27.5377 16.9961 27.7564 16.8438 28.0064 16.7344C28.2642 16.6172 28.5377 16.5586 28.8267 16.5586C28.8658 16.5586 28.9009 16.5625 28.9322 16.5703C28.9713 16.5781 29.0103 16.582 29.0494 16.582C28.8463 16.4258 28.608 16.3086 28.3345 16.2305C28.0689 16.1445 27.7603 16.1016 27.4088 16.1016C26.9634 16.1016 26.5767 16.1953 26.2486 16.3828C25.9205 16.5625 25.6392 16.793 25.4048 17.0742C25.1783 17.3477 24.9947 17.6484 24.8541 17.9766C24.7134 18.2969 24.6002 18.6016 24.5142 18.8906C24.4361 19.1719 24.3814 19.4141 24.3502 19.6172C24.3267 19.8203 24.315 19.9375 24.315 19.9688L24.2916 25.1719C24.565 25.1953 24.8384 25.2305 25.1119 25.2773C25.3931 25.3242 25.6783 25.3711 25.9673 25.418C26.1158 25.457 26.2369 25.5352 26.3306 25.6523C26.4244 25.7617 26.4713 25.8906 26.4713 26.0391C26.4713 26.2109 26.4048 26.3555 26.272 26.4727C26.1392 26.582 25.9986 26.6367 25.8502 26.6367L25.733 26.6367C25.1002 26.5195 24.4986 26.4297 23.9283 26.3672C23.358 26.3047 22.7916 26.2734 22.2291 26.2734C21.6666 26.2734 21.1041 26.3047 20.5416 26.3672C19.9791 26.4297 19.3814 26.5195 18.7486 26.6367L18.6314 26.6367C18.4517 26.6367 18.3072 26.5781 18.1978 26.4609C18.0884 26.3359 18.0338 26.1953 18.0338 26.0391C18.0338 25.8906 18.0767 25.7617 18.1627 25.6523C18.2486 25.5352 18.3658 25.457 18.5142 25.418C18.7877 25.3711 19.0611 25.3242 19.3345 25.2773C19.608 25.2305 19.8775 25.1953 20.1431 25.1719L20.1431 16.4414C19.6509 16.418 19.2369 16.3867 18.9009 16.3477C18.565 16.3086 18.3775 16.2812 18.3384 16.2656C18.1822 16.25 18.0533 16.1875 17.9517 16.0781C17.858 15.9609 17.8111 15.8242 17.8111 15.668C17.8111 15.4727 17.8775 15.3203 18.0103 15.2109C18.1509 15.1016 18.2916 15.0469 18.4322 15.0469L18.5142 15.0469C18.522 15.0547 18.6119 15.0703 18.7838 15.0938C18.9556 15.1094 19.1783 15.1289 19.4517 15.1523C19.7252 15.1758 20.0377 15.1953 20.3892 15.2109C20.7486 15.2266 21.1119 15.2344 21.4791 15.2344C21.8541 15.2344 22.2213 15.2227 22.5806 15.1992C22.94 15.1758 23.272 15.1328 23.5767 15.0703C23.5923 15.0547 23.6314 15.0469 23.6939 15.0469C23.8736 15.0469 24.022 15.1133 24.1392 15.2461C24.2564 15.3711 24.315 15.5117 24.315 15.668L24.315 16.5117C24.6509 16.043 25.0728 15.6562 25.5806 15.3516C26.0963 15.0391 26.7056 14.8828 27.4088 14.8828C27.94 14.8984 28.4244 14.9922 28.8619 15.1641C29.2994 15.3281 29.6744 15.5586 29.9869 15.8555C30.3072 16.1445 30.5533 16.4961 30.7252 16.9102C30.9048 17.3164 30.9947 17.7734 30.9947 18.2812C30.9947 18.6016 30.9439 18.9102 30.8423 19.207C30.7408 19.5039 30.5963 19.7695 30.4088 20.0039C30.2213 20.2305 29.9908 20.4141 29.7173 20.5547C29.4517 20.6875 29.1548 20.7539 28.8267 20.7539ZM44.2823 20.3789L44.2823 20.1797C44.2823 19.5938 44.2198 19.0508 44.0948 18.5508C43.9698 18.0508 43.7706 17.6094 43.4972 17.2266C43.2316 16.8359 42.8878 16.5156 42.4659 16.2656C42.0441 16.0156 41.5363 15.8477 40.9425 15.7617C40.5284 15.8086 40.1691 15.9219 39.8644 16.1016C39.5597 16.2812 39.298 16.5039 39.0792 16.7695C38.8683 17.0273 38.6925 17.3203 38.5519 17.6484C38.4113 17.9766 38.298 18.3164 38.212 18.668C38.1339 19.0117 38.0753 19.3594 38.0363 19.7109C37.9972 20.0547 37.9738 20.3789 37.9659 20.6836C38.0909 20.7227 38.2472 20.7656 38.4347 20.8125C38.63 20.8594 38.8488 20.9062 39.0909 20.9531C39.3331 20.9922 39.5948 21.0273 39.8761 21.0586C40.1652 21.082 40.4659 21.0938 40.7784 21.0938C41.4425 21.0938 42.0636 21.0312 42.6417 20.9062C43.2277 20.7812 43.7745 20.6055 44.2823 20.3789ZM45.4777 20.8359C45.4542 21.0391 45.3448 21.2148 45.1495 21.3633C44.9542 21.5117 44.7081 21.6445 44.4113 21.7617C44.1144 21.8711 43.7863 21.9648 43.4269 22.043C43.0753 22.1133 42.7277 22.1719 42.3839 22.2188C42.0402 22.2656 41.7238 22.3008 41.4347 22.3242C41.1456 22.3398 40.9191 22.3477 40.755 22.3477C40.1847 22.3477 39.6573 22.3086 39.173 22.2305C38.6964 22.1523 38.3019 22.0703 37.9894 21.9844C38.0363 22.4688 38.1261 22.9453 38.2589 23.4141C38.3917 23.8828 38.5831 24.3047 38.8331 24.6797C39.0831 25.0469 39.3956 25.3477 39.7706 25.582C40.1456 25.8086 40.5988 25.9219 41.13 25.9219C41.3253 25.9219 41.548 25.8984 41.798 25.8516C42.048 25.7969 42.2941 25.7227 42.5363 25.6289C42.7784 25.5273 43.0011 25.4102 43.2042 25.2773C43.4073 25.1367 43.5675 24.9805 43.6847 24.8086C43.8175 24.6523 43.9777 24.5742 44.1652 24.5742C44.3292 24.5742 44.4738 24.6406 44.5988 24.7734C44.7238 24.8984 44.7863 25.0391 44.7863 25.1953C44.7863 25.3594 44.7355 25.4883 44.6339 25.582C44.4464 25.8711 44.1847 26.1172 43.8488 26.3203C43.5128 26.5234 43.1495 26.6875 42.7589 26.8125C42.3683 26.9453 41.9738 27.0391 41.5753 27.0938C41.1769 27.1562 40.8136 27.1875 40.4855 27.1875C39.548 27.1875 38.6769 27.0195 37.8722 26.6836C37.0675 26.3555 36.3683 25.9023 35.7745 25.3242C35.1808 24.7461 34.712 24.0664 34.3683 23.2852C34.0323 22.5039 33.8644 21.6602 33.8644 20.7539C33.8644 19.7617 34.0128 18.8789 34.3097 18.1055C34.6066 17.3242 35.0284 16.668 35.5753 16.1367C36.1222 15.5977 36.7863 15.1914 37.5675 14.918C38.3488 14.6367 39.2277 14.4961 40.2042 14.4961C41.1261 14.5352 41.9191 14.6914 42.5831 14.9648C43.255 15.2383 43.8058 15.6172 44.2355 16.1016C44.6652 16.5859 44.9816 17.1719 45.1847 17.8594C45.3956 18.5391 45.5011 19.3047 45.5011 20.1562C45.5011 20.3516 45.4972 20.5078 45.4894 20.625C45.4816 20.7344 45.4777 20.8047 45.4777 20.8359ZM62.8669 14.9531C62.8669 15.0938 62.8239 15.2188 62.738 15.3281C62.652 15.4375 62.5348 15.5117 62.3864 15.5508C62.1208 15.6133 61.8708 15.6641 61.6364 15.7031C61.402 15.7344 61.1716 15.7617 60.945 15.7852C60.7575 16.6289 60.488 17.5312 60.1364 18.4922C59.7927 19.4453 59.3903 20.418 58.9294 21.4102C58.4684 22.3945 57.9606 23.3711 57.4059 24.3398C56.8591 25.3086 56.2809 26.2266 55.6716 27.0938C55.6247 27.1641 55.5583 27.2266 55.4723 27.2812C55.3942 27.3359 55.3083 27.3633 55.2145 27.3633C55.1052 27.3633 55.0114 27.3438 54.9333 27.3047C54.863 27.2734 54.7966 27.2266 54.7341 27.1641C54.2419 26.6562 53.7223 26.043 53.1755 25.3242C52.6364 24.6055 52.1091 23.7773 51.5934 22.8398C51.0856 21.8945 50.6169 20.8281 50.1872 19.6406C49.7653 18.4531 49.4255 17.1367 49.1677 15.6914C48.9958 15.668 48.8239 15.6484 48.652 15.6328C48.488 15.6172 48.3239 15.5898 48.1598 15.5508C48.0036 15.5273 47.8747 15.4609 47.7731 15.3516C47.6794 15.2422 47.6325 15.1094 47.6325 14.9531C47.6325 14.75 47.7028 14.5977 47.8434 14.4961C47.9841 14.3867 48.1208 14.332 48.2536 14.332C48.2692 14.332 48.2809 14.3359 48.2887 14.3438C48.3044 14.3516 48.3239 14.3555 48.3473 14.3555C48.8552 14.4258 49.3473 14.4844 49.8239 14.5312C50.3083 14.5703 50.7927 14.5898 51.277 14.5898C51.7614 14.5898 52.2341 14.5703 52.695 14.5312C53.1637 14.4844 53.6286 14.4258 54.0895 14.3555C54.113 14.3555 54.1286 14.3516 54.1364 14.3438C54.152 14.3359 54.1677 14.332 54.1833 14.332C54.363 14.332 54.5114 14.3945 54.6286 14.5195C54.7458 14.6367 54.8044 14.7812 54.8044 14.9531C54.8044 15.0938 54.7575 15.2227 54.6637 15.3398C54.57 15.457 54.4489 15.5273 54.3005 15.5508C53.9645 15.6211 53.6208 15.668 53.2692 15.6914C53.3395 16.043 53.4606 16.5117 53.6325 17.0977C53.8044 17.6836 54.0348 18.3438 54.3239 19.0781C54.4958 19.5156 54.6833 19.9414 54.8864 20.3555C55.0973 20.7695 55.3044 21.1602 55.5075 21.5273C55.7184 21.8867 55.9177 22.2148 56.1052 22.5117C56.3005 22.8086 56.4684 23.0625 56.6091 23.2734C56.9606 22.6406 57.2927 22 57.6052 21.3516C57.9177 20.6953 58.2028 20.0508 58.4606 19.418C58.7262 18.7773 58.9606 18.1523 59.1637 17.543C59.3669 16.9336 59.5387 16.3477 59.6794 15.7852C59.4528 15.7617 59.2184 15.7344 58.9762 15.7031C58.7341 15.6641 58.4802 15.6133 58.2145 15.5508C58.0661 15.5273 57.945 15.457 57.8512 15.3398C57.7575 15.2227 57.7106 15.0938 57.7106 14.9531C57.7106 14.7734 57.777 14.625 57.9098 14.5078C58.0505 14.3906 58.1911 14.332 58.3317 14.332C58.3552 14.332 58.3747 14.3359 58.3903 14.3438C58.4059 14.3516 58.4255 14.3555 58.4489 14.3555C58.8161 14.4258 59.1481 14.4805 59.445 14.5195C59.7419 14.5508 60.0348 14.5664 60.3239 14.5664C60.613 14.5664 60.8981 14.5508 61.1794 14.5195C61.4684 14.4805 61.777 14.4258 62.1052 14.3555C62.1286 14.3555 62.152 14.3516 62.1755 14.3438C62.1989 14.3359 62.2223 14.332 62.2458 14.332C62.4177 14.332 62.5622 14.3984 62.6794 14.5312C62.8044 14.6562 62.8669 14.7969 62.8669 14.9531ZM71.6545 26.7305L71.5373 26.7305C71.2248 26.6758 70.9397 26.6289 70.6819 26.5898C70.4241 26.5508 70.178 26.5234 69.9436 26.5078C69.7092 26.4844 69.4709 26.4688 69.2288 26.4609C68.9944 26.4531 68.7405 26.4492 68.467 26.4492C67.9123 26.4492 67.3733 26.4727 66.8498 26.5195C66.3264 26.5586 65.7522 26.6367 65.1272 26.7539L65.01 26.7539C64.8147 26.7539 64.6663 26.6914 64.5647 26.5664C64.4631 26.4492 64.4123 26.3047 64.4123 26.1328C64.4123 25.9922 64.4553 25.8672 64.5413 25.7578C64.6272 25.6484 64.7444 25.5742 64.8928 25.5352C65.1819 25.4883 65.4436 25.4531 65.678 25.4297C65.9123 25.3984 66.1623 25.3711 66.428 25.3477L66.428 11.0391C65.9358 11 65.5803 10.9648 65.3616 10.9336C65.1506 10.8945 65.0256 10.875 64.9866 10.875C64.8303 10.8516 64.7014 10.7812 64.5998 10.6641C64.5061 10.5469 64.4592 10.4141 64.4592 10.2656C64.4592 10.0625 64.5295 9.91016 64.6702 9.80859C64.8108 9.69922 64.9475 9.64453 65.0803 9.64453L65.1506 9.64453C65.1584 9.64453 65.2288 9.65625 65.3616 9.67969C65.4944 9.69531 65.6741 9.71875 65.9006 9.75C66.135 9.77344 66.4084 9.79688 66.7209 9.82031C67.0413 9.83594 67.3889 9.84375 67.7639 9.84375C68.1389 9.84375 68.5061 9.83203 68.8655 9.80859C69.2248 9.77734 69.553 9.73047 69.8498 9.66797C69.8733 9.65234 69.9163 9.64453 69.9788 9.64453C70.1584 9.64453 70.3069 9.71094 70.4241 9.84375C70.5413 9.96875 70.5998 10.1094 70.5998 10.2656L70.5764 25.3477C70.7092 25.3633 70.8186 25.3789 70.9045 25.3945C70.9983 25.4023 71.0842 25.4141 71.1623 25.4297C71.2483 25.4375 71.3342 25.4492 71.4202 25.4648C71.5139 25.4727 71.6311 25.4883 71.7717 25.5117C71.9202 25.5508 72.0413 25.625 72.135 25.7344C72.2288 25.8438 72.2756 25.9688 72.2756 26.1094C72.2756 26.2891 72.2092 26.4375 72.0764 26.5547C71.9514 26.6719 71.8108 26.7305 71.6545 26.7305ZM83.0906 22.4648C83.075 22.332 83.0633 22.1953 83.0555 22.0547C83.0477 21.9141 83.0437 21.7695 83.0437 21.6211L82.6102 21.6211C82.2977 21.6211 81.9266 21.6445 81.4969 21.6914C81.075 21.7383 80.6375 21.8125 80.1844 21.9141C79.7312 22.0156 79.282 22.1523 78.8367 22.3242C78.3914 22.4883 77.993 22.6914 77.6414 22.9336C77.2898 23.168 77.0047 23.4453 76.7859 23.7656C76.575 24.0859 76.4695 24.4531 76.4695 24.8672C76.4695 25.0859 76.5203 25.2734 76.6219 25.4297C76.7312 25.5859 76.8641 25.7148 77.0203 25.8164C77.1844 25.9102 77.3641 25.9805 77.5594 26.0273C77.7547 26.0664 77.9422 26.0859 78.1219 26.0859C78.6766 26.0859 79.2 25.9805 79.6922 25.7695C80.1922 25.5508 80.6531 25.2695 81.075 24.9258C81.4969 24.5742 81.8758 24.1836 82.2117 23.7539C82.5477 23.3242 82.8406 22.8945 83.0906 22.4648ZM88.7039 26.5195L88.657 26.5195C88.5242 26.5039 88.3875 26.4961 88.2469 26.4961C88.1062 26.4961 87.9695 26.4961 87.8367 26.4961C87.1023 26.4961 86.3953 26.543 85.7156 26.6367C85.0437 26.7305 84.368 26.875 83.6883 27.0703C83.6648 27.0703 83.6414 27.0742 83.618 27.082C83.5945 27.0898 83.5633 27.0938 83.5242 27.0938C83.3445 27.0938 83.1961 27.0234 83.0789 26.8828C82.9695 26.75 82.9148 26.6133 82.9148 26.4727L82.9148 26.3789C82.9148 26.3633 82.9344 26.207 82.9734 25.9102C83.0125 25.6055 83.0516 25.1836 83.0906 24.6445C82.7547 25.0195 82.3953 25.3711 82.0125 25.6992C81.6375 26.0195 81.2391 26.3008 80.8172 26.543C80.4031 26.7773 79.9734 26.9609 79.5281 27.0938C79.0828 27.2344 78.6219 27.3047 78.1453 27.3047C77.7703 27.3047 77.407 27.2461 77.0555 27.1289C76.7039 27.0195 76.3914 26.8594 76.118 26.6484C75.8523 26.4375 75.6375 26.1836 75.4734 25.8867C75.3172 25.582 75.2391 25.2422 75.2391 24.8672C75.2391 24.2812 75.3641 23.7656 75.6141 23.3203C75.8719 22.875 76.2078 22.4883 76.6219 22.1602C77.0359 21.8242 77.5047 21.5469 78.0281 21.3281C78.5594 21.1016 79.0984 20.9219 79.6453 20.7891C80.1922 20.6484 80.7234 20.5508 81.2391 20.4961C81.7547 20.4336 82.2117 20.4023 82.6102 20.4023L82.8914 20.4023C82.8914 19.9258 82.8055 19.4609 82.6336 19.0078C82.4695 18.5547 82.2352 18.1523 81.9305 17.8008C81.6336 17.4492 81.2781 17.168 80.8641 16.957C80.45 16.7383 79.993 16.6289 79.493 16.6289C79.1258 16.6289 78.7664 16.7344 78.4148 16.9453C78.0633 17.1484 77.7508 17.4102 77.4773 17.7305C77.2039 18.0508 76.9812 18.4102 76.8094 18.8086C76.6453 19.207 76.5633 19.5938 76.5633 19.9688C76.5633 20.125 76.4969 20.2578 76.3641 20.3672C76.2391 20.4688 76.0984 20.5195 75.9422 20.5195C75.7703 20.5195 75.6219 20.457 75.4969 20.332C75.3719 20.1992 75.3094 20.0547 75.3094 19.8984C75.3094 19.5234 75.3758 19.1328 75.5086 18.7266C75.6414 18.3125 75.8328 17.9102 76.0828 17.5195C76.3406 17.1211 76.6492 16.7461 77.0086 16.3945C77.3758 16.043 77.7898 15.7344 78.2508 15.4688C78.7195 15.1953 79.2312 14.9805 79.7859 14.8242C80.3406 14.668 80.9305 14.5898 81.5555 14.5898C82.4305 14.5898 83.1766 14.7266 83.7937 15C84.4187 15.2734 84.9383 15.6445 85.3523 16.1133C85.7742 16.582 86.1062 17.125 86.3484 17.7422C86.5906 18.3594 86.7742 19.0117 86.8992 19.6992C87.0242 20.3867 87.1023 21.0859 87.1336 21.7969C87.1727 22.5078 87.1922 23.1875 87.1922 23.8359C87.1922 24.1641 87.1883 24.4453 87.1805 24.6797C87.1727 24.9141 87.1687 25.1094 87.1687 25.2656C87.2859 25.2656 87.4031 25.2617 87.5203 25.2539C87.6453 25.2461 87.7664 25.2422 87.8836 25.2422C88.0164 25.2422 88.1531 25.2461 88.2937 25.2539C88.4422 25.2617 88.5867 25.2656 88.7273 25.2656C88.8992 25.2812 89.0359 25.3477 89.1375 25.4648C89.2469 25.582 89.3016 25.7266 89.3016 25.8984C89.3016 26.0625 89.243 26.207 89.1258 26.332C89.0164 26.457 88.8758 26.5195 88.7039 26.5195ZM106.117 26.0391C106.101 26.1953 106.031 26.3281 105.906 26.4375C105.781 26.5391 105.64 26.5898 105.484 26.5898L105.437 26.5898C105.062 26.5508 104.699 26.5234 104.347 26.5078C104.003 26.4844 103.663 26.4727 103.327 26.4727C102.835 26.4727 102.363 26.4961 101.91 26.543C101.464 26.582 101.027 26.6367 100.597 26.707C100.581 26.707 100.562 26.7109 100.538 26.7188C100.523 26.7266 100.507 26.7305 100.492 26.7305C100.327 26.7305 100.183 26.668 100.058 26.543C99.933 26.4102 99.8705 26.2656 99.8705 26.1094C99.8705 25.9688 99.9173 25.8398 100.011 25.7227C100.113 25.6055 100.234 25.5352 100.374 25.5117C100.702 25.4492 101.031 25.4023 101.359 25.3711C101.695 25.332 102.038 25.2969 102.39 25.2656C102.46 25.0234 102.535 24.6953 102.613 24.2812C102.691 23.8672 102.761 23.4219 102.824 22.9453C102.894 22.4688 102.949 21.9883 102.988 21.5039C103.035 21.0195 103.058 20.5859 103.058 20.2031C103.058 19.8047 103.035 19.3711 102.988 18.9023C102.949 18.4336 102.851 17.9961 102.695 17.5898C102.546 17.1758 102.327 16.832 102.038 16.5586C101.757 16.2852 101.378 16.1484 100.902 16.1484C100.363 16.1484 99.8627 16.2812 99.4017 16.5469C98.9408 16.8125 98.5423 17.1523 98.2064 17.5664C97.8783 17.9727 97.6166 18.4219 97.4212 18.9141C97.2337 19.4062 97.14 19.8789 97.14 20.332L97.14 20.3555L97.1166 25.5117C97.2572 25.5273 97.3939 25.543 97.5267 25.5586C97.6595 25.5664 97.7923 25.582 97.9252 25.6055C98.0814 25.6211 98.2103 25.6875 98.3119 25.8047C98.4212 25.9141 98.4759 26.0469 98.4759 26.2031C98.4759 26.375 98.4095 26.5234 98.2767 26.6484C98.1517 26.7734 98.0111 26.8359 97.8548 26.8359C97.8236 26.8359 97.8002 26.8242 97.7845 26.8008C97.3158 26.7539 96.8353 26.707 96.3431 26.6602C95.8587 26.6133 95.347 26.5898 94.808 26.5898C94.3236 26.5898 93.8119 26.6133 93.2728 26.6602C92.7416 26.7148 92.1712 26.7969 91.5619 26.9062C91.5306 26.9219 91.4916 26.9297 91.4447 26.9297C91.265 26.9297 91.1205 26.8633 91.0111 26.7305C90.9017 26.5977 90.847 26.4531 90.847 26.2969C90.847 26.1562 90.89 26.0273 90.9759 25.9102C91.0619 25.793 91.1791 25.7227 91.3275 25.6992C91.6166 25.6367 91.8939 25.5898 92.1595 25.5586C92.4252 25.5195 92.6908 25.4883 92.9564 25.4648L92.9564 16.5117C92.4642 16.4883 92.0502 16.4609 91.7142 16.4297C91.3861 16.3906 91.2025 16.3633 91.1634 16.3477C91.0072 16.332 90.8783 16.2656 90.7767 16.1484C90.683 16.0312 90.6361 15.8945 90.6361 15.7383C90.6361 15.5508 90.7025 15.4023 90.8353 15.293C90.9681 15.1758 91.1087 15.1172 91.2572 15.1172C91.2884 15.1172 91.3119 15.125 91.3275 15.1406C91.3353 15.1406 91.4252 15.1484 91.597 15.1641C91.7689 15.1797 91.9916 15.1992 92.265 15.2227C92.5462 15.2461 92.8627 15.2656 93.2142 15.2812C93.5658 15.2969 93.9291 15.3047 94.3041 15.3047C94.6791 15.3047 95.0462 15.2969 95.4056 15.2812C95.765 15.2578 96.0931 15.2109 96.39 15.1406C96.4056 15.1406 96.4212 15.1367 96.4369 15.1289C96.4603 15.1211 96.4837 15.1172 96.5072 15.1172C96.6869 15.1172 96.8353 15.1836 96.9525 15.3164C97.0775 15.4414 97.14 15.582 97.14 15.7383L97.14 16.9453C97.5931 16.2812 98.1322 15.7812 98.7572 15.4453C99.39 15.1016 100.105 14.9297 100.902 14.9297C101.37 14.9297 101.777 15.0117 102.12 15.1758C102.472 15.332 102.773 15.5469 103.023 15.8203C103.281 16.0938 103.488 16.4102 103.644 16.7695C103.808 17.1211 103.937 17.4922 104.031 17.8828C104.132 18.2734 104.199 18.6719 104.23 19.0781C104.269 19.4766 104.288 19.8516 104.288 20.2031C104.288 20.5938 104.269 21.0234 104.23 21.4922C104.191 21.9531 104.14 22.4141 104.077 22.875C104.023 23.3359 103.956 23.7734 103.878 24.1875C103.808 24.6016 103.738 24.9531 103.667 25.2422C103.964 25.2578 104.269 25.2734 104.581 25.2891C104.902 25.3047 105.226 25.332 105.554 25.3711C105.734 25.3867 105.87 25.4648 105.964 25.6055C106.066 25.7383 106.117 25.8828 106.117 26.0391ZM117.424 17.7305C117.307 17.3789 117.131 17.0742 116.896 16.8164C116.662 16.5586 116.393 16.3438 116.088 16.1719C115.791 16 115.471 15.875 115.127 15.7969C114.783 15.7109 114.435 15.668 114.084 15.668C113.553 15.668 113.08 15.7539 112.666 15.9258C112.252 16.0898 111.889 16.3164 111.576 16.6055C111.264 16.8867 110.994 17.2188 110.768 17.6016C110.549 17.9766 110.369 18.375 110.228 18.7969C110.088 19.2109 109.986 19.6367 109.924 20.0742C109.861 20.5117 109.83 20.9336 109.83 21.3398C109.838 21.9102 109.916 22.4609 110.064 22.9922C110.221 23.5156 110.447 23.9844 110.744 24.3984C111.049 24.8047 111.416 25.1328 111.846 25.3828C112.283 25.625 112.787 25.7461 113.357 25.7461C113.881 25.7461 114.346 25.625 114.752 25.3828C115.158 25.1328 115.514 24.8203 115.818 24.4453C116.131 24.0703 116.393 23.6602 116.603 23.2148C116.814 22.7617 116.982 22.332 117.107 21.9258C117.232 21.5117 117.318 21.1484 117.365 20.8359C117.42 20.5156 117.439 20.3047 117.424 20.2031L117.424 17.7305ZM123.014 26.5195L122.967 26.5195C122.771 26.5039 122.576 26.4922 122.381 26.4844C122.193 26.4766 122.01 26.4727 121.83 26.4727C121.33 26.4727 120.861 26.4961 120.424 26.543C119.986 26.5898 119.603 26.6406 119.275 26.6953C118.955 26.7578 118.697 26.8125 118.502 26.8594C118.314 26.9062 118.217 26.9297 118.209 26.9297C118.185 26.9453 118.158 26.9531 118.127 26.9531C118.096 26.9531 118.068 26.9531 118.045 26.9531C117.865 26.9531 117.717 26.8867 117.6 26.7539C117.482 26.6289 117.424 26.4883 117.424 26.332L117.424 24.3398C117.244 24.7148 117.014 25.0625 116.732 25.3828C116.459 25.7031 116.15 25.9805 115.807 26.2148C115.463 26.4492 115.084 26.6328 114.67 26.7656C114.264 26.9062 113.838 26.9766 113.393 26.9766C112.643 26.9766 111.975 26.8242 111.389 26.5195C110.803 26.2148 110.303 25.8086 109.889 25.3008C109.482 24.7852 109.17 24.1875 108.951 23.5078C108.732 22.8281 108.619 22.1133 108.611 21.3633C108.611 20.7773 108.658 20.2031 108.752 19.6406C108.853 19.0703 109.006 18.5312 109.209 18.0234C109.412 17.5078 109.662 17.0312 109.959 16.5938C110.264 16.1562 110.619 15.7812 111.025 15.4688C111.432 15.1484 111.889 14.8984 112.396 14.7188C112.904 14.5391 113.467 14.4492 114.084 14.4492C114.764 14.4492 115.385 14.5508 115.947 14.7539C116.51 14.957 117.002 15.2383 117.424 15.5977L117.424 10.875C116.939 10.8516 116.529 10.8203 116.193 10.7812C115.865 10.7422 115.682 10.7227 115.643 10.7227C115.486 10.6992 115.353 10.6289 115.244 10.5117C115.143 10.3945 115.092 10.2578 115.092 10.1016C115.092 9.92969 115.154 9.78906 115.279 9.67969C115.412 9.5625 115.557 9.50391 115.713 9.50391L115.783 9.50391C115.791 9.50391 115.881 9.51562 116.053 9.53906C116.225 9.55469 116.447 9.57422 116.721 9.59766C117.002 9.62109 117.322 9.64453 117.682 9.66797C118.041 9.68359 118.408 9.69141 118.783 9.69141C119.15 9.69141 119.51 9.67969 119.861 9.65625C120.221 9.625 120.549 9.57422 120.846 9.50391L120.998 9.50391C121.178 9.50391 121.322 9.56641 121.432 9.69141C121.541 9.80859 121.596 9.94531 121.596 10.1016L121.596 25.2422L121.83 25.2422C122.033 25.2422 122.236 25.2461 122.439 25.2539C122.65 25.2539 122.857 25.2656 123.06 25.2891C123.232 25.3047 123.369 25.3711 123.471 25.4883C123.58 25.6055 123.635 25.7422 123.635 25.8984C123.635 26.0859 123.564 26.2383 123.424 26.3555C123.291 26.4648 123.154 26.5195 123.014 26.5195Z" fill="rgb(255,255,255)" fill-rule="nonzero" />
</svg>
